# xmcd CD database file
#
# Track frame offsets:
#	150
#	13376
#	26485
#	38618
#	52598
#	62948
#	78881
#	94965
#	110318
#	121155
#	132344
#
# Disc length: 1902 seconds
#
# Revision: 0
# Processed by: cddbd v1.5.1PL2 Copyright (c) Steve Scherf et al.
# Submitted via: CDex 1.51
#
DISCID=84076c0b
DTITLE=Dave Lindholm - D&D
DYEAR=2006
DGENRE=Blues
TTITLE0=Love Built A House
TTITLE1=Runaway From Life
TTITLE2=Rockaboom
TTITLE3=When Hate's Got A Knife
TTITLE4=Electric Shoes
TTITLE5=Like An Empty Table
TTITLE6=You Can't Drive Me
TTITLE7=Don't Follow The Harvest Down
TTITLE8=King Of The Engineroom
TTITLE9=Under Your Wings
TTITLE10=Cool Delta
EXTD=YEAR: 2006
EXTT0=
EXTT1=
EXTT2=
EXTT3=
EXTT4=
EXTT5=
EXTT6=
EXTT7=
EXTT8=
EXTT9=
EXTT10=
PLAYORDER=
